# xmcd
#
# Track frame offsets:
#	150
#	11890
#	22515
#	34857
#	46645
#	58585
#	73275
#	85900
#	97885
#	109200
#	120935
#	133890
#
# Disc length: 1934 seconds
#
# Revision: 0
# Processed by: cddbd v1.5PL3 Copyright (c) Steve Scherf et al.
# Submitted via: dBpowerAMP V4.0
#
DISCID=94078c0c
DTITLE=Sam Cooke - The Gospel Soul vol1. 2
DYEAR=1976
DGENRE=Gospel
TTITLE0=Christ is all
TTITLE1=Wonderful
TTITLE2=Until Jesus calls me home
TTITLE3=Come and go to that Land
TTITLE4=Let me go home
TTITLE5=I'm so glad (trouble don't last always)
TTITLE6=I'm on the firing line
TTITLE7=He'll make a way
TTITLE8=Be with me Jesus
TTITLE9=It won't be very long
TTITLE10=How far am I from Canaan ?
TTITLE11=Farther along
EXTD=The Gospel Soul vol1.2\n[Sam Cooke]\nChrist is all\nWonderful\nUntil Jesus calls me home\nCome and go to that land\nLet me go home\nI'm so glad (trouble don't last always]\nI'm on the firing line\nHe'll make a way\nBe with me Jesus\nIt won't be ver
EXTD=y long\nHow far am I from Canaan\nFarther along
EXTT0=
EXTT1=
EXTT2=
EXTT3=
EXTT4=
EXTT5=
EXTT6=
EXTT7=
EXTT8=
EXTT9=
EXTT10=
EXTT11=
PLAYORDER=
